<svg viewBox="0 0 24 24" fill="none" xmlns="http://www.w3.org/2000/svg" class="w-5 h-5"><path fill-rule="evenodd" clip-rule="evenodd" d="M11.821 15.506c.169 0 .339.043.492.129L17 18.285V5.335c0-.201-.121-.334-.2-.334H7.2c-.08 0-.2.133-.2.334v12.9l4.306-2.585c.159-.095.337-.143.515-.143ZM6 21a1 1 0 0 1-1-1V5.334C5 4.047 5.987 3 7.2 3h9.6C18.013 3 19 4.047 19 5.334V20a1 1 0 0 1-1.492.87l-5.672-3.207-5.322 3.195A1.006 1.006 0 0 1 6 21Z" fill="#101010"></path><mask id="SaveIcon_svg__a" maskUnits="userSpaceOnUse" x="5" y="2" width="14" height="20" style="mask-type: alpha;"><path fill-rule="evenodd" clip-rule="evenodd" d="M11.821 15.506c.169 0 .339.043.492.129L17 18.285V5.335c0-.201-.121-.334-.2-.334H7.2c-.08 0-.2.133-.2.334v12.9l4.306-2.585c.159-.095.337-.143.515-.143ZM6 21a1 1 0 0 1-1-1V5.334C5 4.047 5.987 3 7.2 3h9.6C18.013 3 19 4.047 19 5.334V20a1 1 0 0 1-1.492.87l-5.672-3.207-5.322 3.195A1.006 1.006 0 0 1 6 21Z" fill="#fff"></path></mask><g mask="url(#SaveIcon_svg__a)"><path fill="#202020" d="M0 0h24v24H0z"></path></g></svg>
