<svg width="104" height="30" fill="none" xmlns="http://www.w3.org/2000/svg"><path d="M.25 4a4 4 0 0 1 4-4h95.186a4 4 0 0 1 4 4v22a4 4 0 0 1-4 4H4.25a4 4 0 0 1-4-4V4Z" fill="#000"></path><path fill-rule="evenodd" clip-rule="evenodd" d="M3.46.698A2.575 2.575 0 0 0 .877 3.28V26.72c0 1.396 1.186 2.582 2.581 2.582h96.628a2.576 2.576 0 0 0 2.582-2.582V3.28a2.576 2.576 0 0 0-2.582-2.582H3.459ZM100.156 30H3.529A3.275 3.275 0 0 1 .25 26.72V3.28A3.275 3.275 0 0 1 3.53 0h96.627a3.275 3.275 0 0 1 3.279 3.28v23.44a3.275 3.275 0 0 1-3.279 3.28ZM21.808 4.396c.14 1.186-.279 2.302-.977 3.14-.697.837-1.814 1.464-2.93 1.325-.14-1.116.419-2.302 1.047-3 .697-.768 1.883-1.395 2.86-1.465Zm0 4.744c.628 0 2.372.279 3.558 1.953a.679.679 0 0 1-.058.042c-.35.238-2.087 1.421-1.895 3.656 0 3 2.581 3.976 2.581 3.976-.016.017-.048.103-.1.244-.169.455-.548 1.48-1.295 2.547-.837 1.186-1.675 2.372-3 2.372-.604 0-1.03-.177-1.473-.361-.478-.2-.976-.406-1.736-.406-.834 0-1.339.206-1.827.405-.41.167-.81.33-1.383.362-1.255.07-2.232-1.255-3.07-2.442-1.604-2.372-2.93-6.837-1.185-9.837.837-1.465 2.372-2.442 3.976-2.442.725-.04 1.426.245 2.037.493.448.182.848.345 1.172.345.3 0 .694-.16 1.155-.345.722-.291 1.607-.648 2.543-.562Zm14.786 6.908v.001l-.001.004c-.061.252-.128.528-.204.83l-.907 2.653h2.721l-.837-2.652c-.018-.07-.04-.167-.067-.288-.082-.36-.213-.935-.421-1.665-.089.31-.177.676-.284 1.116v.001Zm2.935 7.813-.977-3h-3.279l-.907 3h-1.674l3.279-10.187h2.023l3.28 10.186h-1.745Zm4.814-4.744c-.07.21-.07.349-.07.488v1.186c0 .489.14.977.489 1.326.279.349.767.558 1.256.558.627 0 1.116-.21 1.465-.698s.488-1.116.488-1.883c0-.698-.14-1.256-.488-1.745-.35-.488-.768-.697-1.396-.697-.418 0-.767.14-1.116.418-.279.28-.558.628-.628 1.047Zm-.07 3.836v3.907h-1.535v-8.023c0-.837 0-1.604-.07-2.442h1.466l.07 1.186c.488-.907 1.325-1.325 2.441-1.325.838 0 1.605.349 2.163 1.046.558.698.837 1.605.837 2.721 0 1.256-.348 2.303-1.046 3-.558.628-1.326.977-2.233.977-.976 0-1.674-.349-2.093-1.047Zm8.442-3.348c0-.14 0-.279.07-.488a1.65 1.65 0 0 1 .628-1.047c.349-.279.698-.418 1.117-.418.627 0 1.046.209 1.395.697.349.489.488 1.047.488 1.745 0 .767-.139 1.395-.488 1.883-.349.489-.838.698-1.466.698-.558 0-.976-.21-1.255-.558-.35-.349-.489-.837-.489-1.326v-1.186Zm0 7.255v-3.907c.42.698 1.117 1.047 2.093 1.047.907 0 1.674-.349 2.233-.977.697-.697 1.046-1.744 1.046-3 0-1.116-.279-2.023-.837-2.72a2.706 2.706 0 0 0-2.163-1.047c-1.116 0-1.953.418-2.442 1.325l-.07-1.186H51.11c.07.838.07 1.605.07 2.442v8.023h1.535Zm11.233-4.255c-.838 0-1.675-.21-2.373-.628l-.348 1.396c.697.418 1.535.627 2.65.627 1.187 0 2.093-.279 2.79-.907.63-.558.908-1.256.908-2.093 0-.698-.21-1.326-.627-1.744-.42-.489-1.047-.907-1.954-1.256-.698-.28-1.186-.558-1.466-.767-.278-.28-.488-.628-.488-.977 0-.35.14-.698.42-.907.348-.28.766-.419 1.324-.419.698 0 1.395.14 1.954.488l.419-1.325c-.629-.349-1.395-.489-2.302-.489-1.047 0-1.884.28-2.513.838-.627.558-.907 1.256-.907 2.093 0 1.256.907 2.232 2.651 2.93.629.21 1.117.488 1.396.768.28.279.42.627.42 1.047 0 .488-.14.837-.49 1.115l-.208.045c-.327.072-.746.165-1.256.165Zm5.581-7.466v1.326h-1.046v1.256h1.046v3.697c0 .907.21 1.605.558 1.954.35.418.838.558 1.535.558.558 0 .976-.07 1.256-.21l-.07-1.255c-.21.07-.418.07-.698.07-.627 0-.976-.489-.976-1.396v-3.558h1.813v-1.256h-1.813v-1.814l-1.605.628Zm6 5.023c0 .698.14 1.256.419 1.744.349.628.837.907 1.466.907.627 0 1.115-.279 1.464-.907.28-.488.42-1.046.42-1.744s-.14-1.256-.42-1.744c-.349-.627-.837-.907-1.465-.907-.628 0-1.117.349-1.465.907-.279.42-.419 1.046-.419 1.744Zm5.512-.07c0 1.117-.349 2.094-.977 2.791-.628.768-1.535 1.117-2.582 1.117-1.115 0-1.953-.35-2.581-1.047-.627-.698-.976-1.605-.976-2.72 0-1.117.349-2.093.976-2.79.628-.769 1.535-1.118 2.651-1.118 1.047 0 1.954.349 2.581 1.047.628.697.908 1.604.908 2.72Zm3.07 3.768v-3.837c0-.558.139-1.047.418-1.465.279-.418.767-.628 1.325-.628.21 0 .35 0 .489.07v-1.535h-.418c-.42 0-.838.14-1.187.418-.349.28-.628.698-.837 1.186h-.07l-.07-1.395h-1.395c.07.698.07 1.466.07 2.302V24h1.674v-.14Zm4.534-4.465h3.42c0-.488-.071-.907-.28-1.256-.28-.488-.767-.697-1.326-.697-.558 0-.976.279-1.325.697-.28.35-.419.768-.489 1.256Zm4.395-1.884c.42.628.629 1.396.629 2.303 0 .149-.02.298-.039.437-.016.12-.031.232-.031.33h-4.884c0 .767.21 1.326.698 1.674.419.35.977.489 1.605.489.697 0 1.324-.14 1.953-.35l.28 1.117c-.699.35-1.466.489-2.443.489-1.116 0-2.023-.28-2.652-.977-.627-.698-.976-1.605-.976-2.721s.279-2.024.907-2.79c.628-.768 1.535-1.187 2.582-1.187 1.046 0 1.814.419 2.371 1.186Zm-26.162-9.07c0 .28-.07.49-.21.629-.14.209-.349.279-.627.279-.28 0-.559-.14-.698-.35-.14-.208-.28-.488-.28-.836 0-.35.07-.698.28-.907.14-.21.418-.35.698-.35.21 0 .418.07.558.21.14.14.279.28.279.489V8.442Zm0-3.767v2.094c-.21-.35-.559-.489-1.047-.489-.419 0-.837.14-1.117.489-.279.348-.488.837-.488 1.395s.14.977.42 1.325c.278.35.627.489 1.115.489.558 0 .907-.21 1.187-.698l.069.558h.698V4.535h-.838v.14ZM54.53 9.977h-.768V4.675h.768v5.302ZM36.39 8.86c-.35.349-.838.489-1.396.489h-.558V5.58c.209-.07.418-.07.628-.07.627 0 1.046.14 1.325.489.28.279.489.767.489 1.325 0 .698-.14 1.186-.489 1.535Zm1.325-1.534c0-.838-.28-1.396-.768-1.884-.418-.349-1.116-.558-1.953-.558-.254 0-.507.019-.751.037-.226.016-.443.033-.645.033v4.953c.35.07.698.07 1.187.07.907 0 1.604-.21 2.162-.628.489-.419.768-1.116.768-2.023ZM39.738 9c-.14-.21-.209-.559-.209-.838 0-.348.07-.628.21-.907.139-.279.418-.418.767-.418.279 0 .558.14.697.418.14.21.21.559.21.838 0 .279-.07.627-.21.837a.767.767 0 0 1-.697.418c-.349.14-.628 0-.768-.348Zm2.024.488c.349-.349.488-.837.488-1.395s-.14-.977-.488-1.326c-.35-.349-.768-.558-1.256-.558-.558 0-.977.21-1.326.558-.349.35-.488.838-.488 1.396 0 .558.14.976.488 1.325.35.35.768.558 1.256.558.558 0 .977-.209 1.326-.558Zm3.837-2.302c-.07.419-.14.837-.279 1.186l-.419 1.605h-.767l-1.047-3.628h.838l.418 1.744c.117.35.185.701.245 1.01v.001l.034.175c.07-.349.14-.698.28-1.186l.488-1.744h.628l.488 1.674c.117.35.185.702.245 1.011v.005l.034.17c.012-.056.023-.114.034-.174.06-.31.128-.661.245-1.012l.419-1.674h.767l-1.116 3.628h-.767l-.489-1.605a7.295 7.295 0 0 1-.279-1.186Zm6.767 2.79V7.815c0-.558-.14-.907-.419-1.186a1.155 1.155 0 0 0-.837-.349c-.279 0-.488.07-.698.21-.209.139-.348.279-.418.418l-.07-.558h-.698v3.628h.768V7.814c0-.21.07-.419.21-.628.139-.21.348-.279.557-.279.489 0 .698.349.698.977v2.093h.907ZM56.83 9c-.14-.21-.209-.559-.209-.838 0-.348.07-.628.21-.907.139-.279.418-.418.767-.418.279 0 .557.14.698.418.139.21.208.559.208.838 0 .279-.069.627-.209.837a.768.768 0 0 1-.697.418c-.349.14-.628 0-.768-.348Zm2.023.488c.349-.349.489-.837.489-1.395s-.14-.977-.49-1.326c-.348-.349-.766-.558-1.254-.558-.558 0-.977.21-1.326.558-.349.35-.488.838-.488 1.396 0 .558.14.976.488 1.325.28.35.768.558 1.256.558.558 0 .976-.209 1.325-.558Zm3.489-.767v-.558c-.907 0-1.325.21-1.325.697 0 .21.07.35.14.42.139.069.278.139.418.139.14 0 .348 0 .489-.14.14-.07.278-.279.278-.419v-.139ZM60.25 9c0-.489.21-.837.559-1.047.348-.209.836-.349 1.464-.209v-.07c0-.488-.279-.697-.767-.697-.349 0-.628.07-.907.279l-.14-.559c.35-.209.767-.279 1.257-.279.906 0 1.395.489 1.395 1.466v1.325c0 .197.022.371.041.523.015.118.028.223.028.314h-.698l-.069-.418c-.209.349-.558.488-1.046.488-.35 0-.629-.14-.838-.349-.209-.21-.28-.488-.28-.767Zm11.65-.838c0 .28.071.628.21.838.14.348.42.488.768.348.279 0 .558-.14.698-.418.14-.21.209-.558.209-.837 0-.28-.07-.628-.21-.838a.769.769 0 0 0-.697-.418c-.349 0-.628.14-.768.418a1.94 1.94 0 0 0-.21.907Zm2.722-.07c0 .559-.14 1.047-.489 1.396-.349.35-.766.558-1.325.558-.488 0-.907-.209-1.256-.558-.349-.349-.489-.767-.489-1.325 0-.558.14-1.047.489-1.396a1.788 1.788 0 0 1 1.326-.558c.489 0 .906.21 1.255.558.35.35.49.768.49 1.326Zm4.256-.278v2.163h-.838V7.884c0-.628-.209-.977-.697-.977-.21 0-.419.07-.559.28-.139.208-.209.418-.209.627v2.163h-.837V6.349h.698l.07.558c.07-.14.209-.279.418-.419.21-.14.419-.209.698-.209.349 0 .628.14.837.349.279.279.419.628.419 1.186Zm6.558 2.163V4.745h.698v2.162c.278-.418.627-.628 1.116-.628.349 0 .628.14.837.35.28.278.418.627.418 1.185v2.163h-.767V7.954c0-.628-.209-.977-.697-.977-.35 0-.629.21-.768.558-.07.07-.07.14-.07.28v2.162h-.767Zm-2.79-3.628v-.698l.837-.209v.907h.907v.628h-.907v1.744c0 .489.209.698.487.698a.84.84 0 0 0 .233-.044.494.494 0 0 1 .116-.026v.628c-.139.07-.349.07-.627.07-.349 0-.558-.07-.768-.28-.209-.209-.279-.488-.279-.976V6.977h-.558v-.628h.558Zm7.814 1.395c0-.14.062-.28.124-.42.03-.07.062-.138.085-.208a.732.732 0 0 1 .627-.348c.28 0 .488.14.629.348.14.14.14.35.14.628H90.46Zm.976-1.465c-.558 0-.977.21-1.256.558-.28.349-.418.837-.418 1.396 0 .558.139.976.487 1.325.35.349.769.489 1.327.489.488 0 .837-.07 1.186-.21l-.14-.558c-.28.14-.628.14-.977.14s-.558-.07-.767-.28a1.155 1.155 0 0 1-.349-.837h2.372v-.349c0-.418-.14-.837-.349-1.116-.21-.349-.627-.558-1.117-.558Z" fill="#fff"></path></svg>