<svg xmlns="http://www.w3.org/2000/svg" width="171.71" height="62.054" viewBox="0 0 171.71 62.054">
  <g id="Group_3" data-name="Group 3" transform="translate(-866.29 -425)">
    <g id="Group_2" data-name="Group 2" transform="translate(-6 -67)">
      <path id="Path_6" data-name="Path 6" d="M6.59,1.4H30.87a5.229,5.229,0,0,1,5.238,5.114V30.7a5.228,5.228,0,0,1-5.238,5.16H6.59A5.183,5.183,0,0,1,1.4,30.7V6.515A5.175,5.175,0,0,1,6.589,1.4Z" transform="translate(871.597 492.6)" fill="#aace47" stroke="#aace47" stroke-miterlimit="10" stroke-width="1.42"/>
      <path id="Path_7" data-name="Path 7" d="M19.547,5.722H16.788v7.421a5,5,0,0,1,2.76.835V5.722Z" transform="translate(871.597 492.6)" fill="#231f20" fill-rule="evenodd"/>
      <path id="Path_8" data-name="Path 8" d="M17.51,26.572A2.993,2.993,0,0,1,14.7,28.114a3.5,3.5,0,0,1-2.23-.719,4.64,4.64,0,0,1-1.408-2.029,7.77,7.77,0,0,1-.483-2.61,8.011,8.011,0,0,1,.483-2.649,4.21,4.21,0,0,1,1.409-1.983,3.314,3.314,0,0,1,2.23-.771,3.268,3.268,0,0,1,2.13.725,4.85,4.85,0,0,1,1.257,1.977,9.262,9.262,0,0,1,.39,2.7,7.029,7.029,0,0,1-.972,3.815Zm4.9-8.117a7.586,7.586,0,0,0-2.422-3.282,6.1,6.1,0,0,0-3.83-1.253,6.975,6.975,0,0,0-3,.627,5.315,5.315,0,0,0-2.23,1.884h-.04V5.721H6.322V31.5s4.168.481,4.313-2.169v-.435l.053.192a5.206,5.206,0,0,0,.483.77,5.073,5.073,0,0,0,1.694,1.16,8.19,8.19,0,0,0,3.295.528,6.03,6.03,0,0,0,3.83-1.206,7.87,7.87,0,0,0,2.416-3.276,12.015,12.015,0,0,0,.826-4.3,11.842,11.842,0,0,0-.826-4.3v0Z" transform="translate(871.597 492.6)" fill="#e60020" fill-rule="evenodd"/>
      <path id="Path_9" data-name="Path 9" d="M30.364,18.46a6.833,6.833,0,0,0-9.256-3.908c-.163.082-.326.163-.477.255A9.292,9.292,0,0,1,22.1,16.483a4.48,4.48,0,0,1,1.473-.232c3.493,0,4.558,3.688,4.558,6.512s-1.112,6.459-4.558,6.459a4.673,4.673,0,0,1-1.589-.267,9.02,9.02,0,0,1-1.688,1.792c.157.087.332.18.524.267a8.175,8.175,0,0,0,3.3.527,6.029,6.029,0,0,0,3.83-1.206,7.923,7.923,0,0,0,2.422-3.282,12.118,12.118,0,0,0,.82-4.3,11.96,11.96,0,0,0-.82-4.3Zm20.682,8.019a3.053,3.053,0,0,1-2.794,1.554,3.28,3.28,0,0,1-2.218-.737,4,4,0,0,1-1.4-2.047,6.7,6.7,0,0,1-.495-2.62,7.357,7.357,0,0,1,.495-2.621,3.793,3.793,0,0,1,1.4-1.966,3.28,3.28,0,0,1,2.218-.736,3.005,3.005,0,0,1,2.055.736,5.219,5.219,0,0,1,1.321,1.873,10.448,10.448,0,0,1,.414,2.783,6.78,6.78,0,0,1-1,3.78Zm4.85-8.118a7.851,7.851,0,0,0-2.382-3.276,6.24,6.24,0,0,0-3.865-1.23,7.056,7.056,0,0,0-2.957.656,4.448,4.448,0,0,0-2.224,1.8h-.081V5.75H39.864V31.378s4.11.493,4.278-2.209v-.33l.082.168a5.413,5.413,0,0,0,.495.736,5.24,5.24,0,0,0,1.746,1.16,7.3,7.3,0,0,0,3.207.58,6.24,6.24,0,0,0,3.866-1.224,7.4,7.4,0,0,0,2.38-3.276,10.892,10.892,0,0,0,.827-4.262,11.285,11.285,0,0,0-.832-4.36h-.018Zm6.594-4.012v17.11H57.968V14.35h4.523ZM57.968,9.513V5.75h4.523V9.513ZM75.728,24.16a4,4,0,0,1-.657,1.478,3.606,3.606,0,0,1-1.235.98,2.978,2.978,0,0,1-1.746.412,3.877,3.877,0,0,1-1.746-.412,4.064,4.064,0,0,1-1.165-1.23,4.477,4.477,0,0,1-.582-1.553,6.765,6.765,0,0,1-.163-1.8,12.3,12.3,0,0,1,.163-1.8,6.464,6.464,0,0,1,.658-1.478A3.586,3.586,0,0,1,70.419,17.7a3.72,3.72,0,0,1,1.648-.412,4.212,4.212,0,0,1,1.886.412,3.045,3.045,0,0,1,1.164,1.16,5.585,5.585,0,0,1,.658,1.64,13.757,13.757,0,0,1,.163,1.966,6.205,6.205,0,0,1-.245,1.74l.035-.041Zm.245-7.614h-.082A4.514,4.514,0,0,0,73.836,14.5a6.073,6.073,0,0,0-2.794-.655A6.931,6.931,0,0,0,68,14.5a6.246,6.246,0,0,0-2.218,1.884,7.337,7.337,0,0,0-1.4,2.62,9.879,9.879,0,0,0-.413,3.109,13.211,13.211,0,0,0,.331,3.195,8.19,8.19,0,0,0,1.316,2.7,6.038,6.038,0,0,0,2.218,1.8,7.01,7.01,0,0,0,3.126.655,6.91,6.91,0,0,0,2.875-.58,4.747,4.747,0,0,0,2.055-1.966h.082V30.05A4.18,4.18,0,0,1,75.152,33a3.119,3.119,0,0,1-2.794,1.16,4.6,4.6,0,0,1-2.137-.488,2.53,2.53,0,0,1-1.234-1.74H64.464a4.628,4.628,0,0,0,.821,2.378,4.73,4.73,0,0,0,1.746,1.635,5.351,5.351,0,0,0,2.329.986,8.631,8.631,0,0,0,2.468.325,10.14,10.14,0,0,0,4.523-.818,6.908,6.908,0,0,0,2.55-1.884,5.308,5.308,0,0,0,1.164-2.372,8.03,8.03,0,0,0,.332-2.32V14.35h-.582c-3.674.081-3.842,2.209-3.842,2.209v-.012Zm90.443.256v-.325c-.25-1.966-2.712-1.966-2.712-1.966V5.67h-2.8v8.842h-2.329v2.32H160.9V27.97c0,1.965.582,3.606,3.37,3.606.332,0,1.164-.168,2.142-.249V29.089h-.989c-.582,0-1.747,0-1.747-1.31V16.8h2.736ZM142.9,15.491c-1.56-1.635-3.452-.162-3.778.168l-6.334,6.14V5.67h-2.712V31.547h2.712V25.169l2.387-2.128,5.239,8.518h3.615l-6.8-10.576,5.67-5.49Zm-19.315,6.065-2.8-.743c-2.218-.58-3.12-.9-3.12-2.209,0-2.128,2.544-2.371,3.371-2.371,1.891,0,2.875.406,3.37,1.06,0,0,1.56,1.8,3.371,1.23-.163-1.391-1.235-4.749-6.4-4.749-3.37,0-6.4,1.636-6.4,5.323,0,2.32,1.56,3.52,3.941,4.094l3.289.817c2.386.58,3.289,1.067,3.289,2.378,0,1.884-1.805,2.7-3.86,2.7-3.946,0-4.36-2.128-4.441-3.438h-2.794c.163,2.047.657,5.9,7.317,5.9,3.778,0,6.659-2.134,6.659-5.572-.017-2.29-1.251-3.6-4.785-4.418Z" transform="translate(871.004 492.651)" fill="#231f20" fill-rule="evenodd"/>
      <path id="Path_10" data-name="Path 10" d="M150.792,16.316c3.452,0,4.524,2.371,4.657,4.992H148.26a2.974,2.974,0,0,0-2.136,1.067V21.308a4.906,4.906,0,0,1,4.686-4.992Zm.251,12.756c-3.289,0-4.937-2.047-4.937-5.572h12.336c0-5.891-2.387-9.741-7.236-9.741-5.589,0-8.15,4.093-8.15,9.335,0,4.83,2.794,8.436,7.568,8.436a7.049,7.049,0,0,0,7.561-5.815h-2.794a4.315,4.315,0,0,1-4.348,3.374Zm-41.6-3.834c0,2.209-2.632,3.931-5.24,3.931-2.136,0-3.038-1.067-3.038-2.945,0-2.134,2.218-2.54,3.615-2.708,3.539-.487,4.2-.737,4.657-1.061v2.783h.006Zm3.783,3.85a.874.874,0,0,1-.983-.986v-9.66c0-4.343-4.855-4.638-6.252-4.638-4.11,0-6.741,1.554-6.9,5.4a2.921,2.921,0,0,0,2.957-1.31,1.7,1.7,0,0,1,.332-.494c.483-.782,1.4-1.362,3.12-1.362,2.718,0,4.028.985,4.028,2.783,0,1.64-.821,1.884-1.479,1.966l-4.657.58c-4.767.58-5.18,3.85-5.18,5.218,0,2.951,2.223,4.917,5.343,4.917a7.661,7.661,0,0,0,6.089-2.789c.082,1.31.489,2.62,2.958,2.62a7.424,7.424,0,0,0,1.56-.324V28.966c-.355.04-.687.122-.932.122Zm-23.349,0c-1.81,0-4.6-1.23-4.6-5.653,0-2.784.5-7.12,4.523-7.12,4.442,0,4.686,4.093,4.686,6.3,0,3.688-1.479,6.47-4.605,6.47Zm.5-15.313A5.483,5.483,0,0,0,85.519,16.4h-.087V5.669H82.556V31.053h1.089a1.66,1.66,0,0,0,1.641-1.64v-.487h.082a4.89,4.89,0,0,0,4.6,2.62c5.758,0,7.4-5.41,7.4-9.422-.018-4.748-2.568-8.35-7-8.35ZM33.25,47.812H43.443V50.9H40.521v7.433h-4.25V50.9h-3.02v-3.09Zm15.357,4.25-2.148,6.273H42.378l4.005-10.523h4.43L54.9,58.335H50.778Zm5.326-4.25H64.126V50.9H61.2v7.433h-4.25V50.9h-3.02v-3.09Zm15.357,4.25-2.148,6.273H63.067l4-10.523H71.5l4.092,10.523H71.461L69.29,52.062Zm17.5,1.628H82.824v3.074h4.43v1.57H80.9V47.858h6.117v1.578h-4.2v2.69h3.965v1.565Zm1.922-.672c0-.876,0-1.6-.06-2.25h1.677l.094,1.16h.046a2.743,2.743,0,0,1,2.416-1.31c1.327,0,2.7.851,2.7,3.246v4.494h-1.92V54.09c0-1.09-.4-1.913-1.45-1.913a1.588,1.588,0,0,0-1.49,1.119,1.732,1.732,0,0,0-.093.58v4.453H88.71V53.012M99.665,48.82v1.949h1.828v1.426H99.665v3.34c0,.922.244,1.391.984,1.391a2.62,2.62,0,0,0,.745-.081l.035,1.455a4.248,4.248,0,0,1-1.4.2,2.223,2.223,0,0,1-1.647-.62,3.006,3.006,0,0,1-.582-2.129V52.195H96.719V50.769H97.8v-1.41l1.88-.539m7.795,4.91a1.634,1.634,0,0,0-1.584-1.843,1.871,1.871,0,0,0-1.746,1.843h3.33Zm-3.324,1.334a2.057,2.057,0,0,0,2.328,1.971,5.885,5.885,0,0,0,2.1-.347L108.862,58a6.945,6.945,0,0,1-2.654.481,3.591,3.591,0,0,1-3.906-3.838c0-2.088,1.269-4.06,3.714-4.06s3.265,2.024,3.265,3.683a4.48,4.48,0,0,1-.064.817l-5.064-.023ZM110.69,53.2c0-1.01,0-1.74-.064-2.43h1.665l.07,1.438h.052a2.266,2.266,0,0,1,2.078-1.612,1.728,1.728,0,0,1,.448.047v1.8a2.785,2.785,0,0,0-.582-.052,1.69,1.69,0,0,0-1.717,1.45,2.893,2.893,0,0,0-.052.58v3.925h-1.921V53.2m7.323,1.966a2.174,2.174,0,0,0,.052.521,1.74,1.74,0,0,0,.611.956,1.758,1.758,0,0,0,1.072.378c1.216,0,1.932-1.009,1.932-2.493,0-1.34-.652-2.43-1.886-2.43a1.8,1.8,0,0,0-1.1.414,1.78,1.78,0,0,0-.607,1.007,1.866,1.866,0,0,0-.07.481Zm-1.921-1.9c0-.98-.029-1.792-.064-2.505h1.688l.093,1.16h.029a2.955,2.955,0,0,1,2.608-1.334c1.747,0,3.179,1.49,3.179,3.85,0,2.748-1.718,4.059-3.447,4.059a2.467,2.467,0,0,1-2.136-1.015V61.4H116.1l-.029-8.135Zm8.982-.069c0-1.01,0-1.74-.064-2.43h1.665l.07,1.438h.052a2.263,2.263,0,0,1,2.078-1.612,1.728,1.728,0,0,1,.448.047v1.8a2.785,2.785,0,0,0-.582-.052,1.7,1.7,0,0,0-1.155.388,1.676,1.676,0,0,0-.591,1.062,2.968,2.968,0,0,0-.053.58v3.925H125V53.2m6.381-3.606a1.1,1.1,0,0,1-.96-.719,1.078,1.078,0,0,1,.28-1.163,1.094,1.094,0,0,1,1.844.792,1.071,1.071,0,0,1-1.164,1.09Zm-.943,1.16h1.92v7.566h-1.92V50.757Zm3.737,5.821a4.234,4.234,0,0,0,1.938.58c.844,0,1.223-.354,1.223-.852s-.315-.771-1.252-1.1c-1.484-.51-2.1-1.316-2.1-2.209,0-1.334,1.112-2.371,2.882-2.371a4.4,4.4,0,0,1,2.014.452l-.384,1.345a3.46,3.46,0,0,0-1.607-.435c-.681,0-1.059.337-1.059.8s.366.713,1.327,1.061c1.38.487,2.014,1.16,2.02,2.32,0,1.386-1.077,2.377-3.08,2.377a4.964,4.964,0,0,1-2.328-.528l.384-1.391m11.148-2.9a1.634,1.634,0,0,0-1.583-1.843,1.867,1.867,0,0,0-1.747,1.843h3.33Zm-3.33,1.334a2.578,2.578,0,0,0,.237.927c.185.634,1.088,1.044,2.092,1.044a5.88,5.88,0,0,0,2.1-.347L146.682,58a6.945,6.945,0,0,1-2.654.481,3.591,3.591,0,0,1-3.906-3.838c0-2.088,1.269-4.06,3.708-4.06s3.272,2.024,3.272,3.683a4.57,4.57,0,0,1-.064.817l-5.065-.023ZM26.6,53.928l-.827-2.586c-.2-.643-.372-1.357-.53-1.965h-.034c-.157.614-.314,1.339-.5,1.96l-.816,2.591Zm-3.015,1.444-.9,2.963H20.7l3.37-10.478h2.446l3.41,10.478H27.878l-.95-2.963H23.582Z" transform="translate(871.597 492.652)" fill="#1b69b1" fill-rule="evenodd"/>
    </g>
    <g id="Rectangle_1" data-name="Rectangle 1" transform="translate(903 426)" fill="#fff" stroke="#fff" stroke-width="1">
      <rect width="134" height="39" stroke="none"/>
      <rect x="0.5" y="0.5" width="133" height="38" fill="none"/>
    </g>
    <text id="bigbasket" transform="translate(905 457)" fill="#e60020" font-size="30" font-family="SegoeUI-Bold, Segoe UI" font-weight="700"><tspan x="0" y="0">big</tspan><tspan y="0" fill="#231f20" font-family="SegoeUI, Segoe UI" font-weight="400">basket</tspan></text>
  </g>
</svg>
