<svg width="24" height="24" fill="none" xmlns="http://www.w3.org/2000/svg"><rect width="24" height="24" rx="12" fill="#D63333"></rect><path fill-rule="evenodd" clip-rule="evenodd" d="M16.795 10.2H18.3c.385 0 .7.315.7.7 0 .385-.315.7-.7.7H5.7a.702.702 0 0 1-.7-.7c0-.385.315-.7.7-.7h1.505l.998-3.01A1.75 1.75 0 0 1 9.864 6h4.27c.752 0 1.435.473 1.662 1.19l.998 3.01ZM8.867 7.418 7.94 10.2h8.12l-.91-2.782a1.035 1.035 0 0 0-.998-.718H9.866c-.455 0-.857.28-.998.718ZM6.05 16.85V12.3h11.9v4.55c0 .962-.787 1.75-1.75 1.75H7.8c-.962 0-1.75-.788-1.75-1.75Zm3.465.367c.157 0 .297-.14.297-.314v-2.888c0-.175-.122-.315-.297-.315a.314.314 0 0 0-.315.315v2.887c0 .175.14.316.315.316Zm2.485 0c.175 0 .315-.14.315-.314v-2.888A.314.314 0 0 0 12 13.7a.314.314 0 0 0-.315.315v2.887c0 .175.14.316.315.316Zm2.485 0c.175 0 .315-.14.315-.314v-2.888a.314.314 0 0 0-.315-.315c-.157 0-.297.14-.297.315v2.887c0 .175.122.316.297.316Z" fill="#fff"></path><mask id="basket_svg__a" maskUnits="userSpaceOnUse" x="5" y="6" width="14" height="13" style="mask-type: alpha;"><path fill-rule="evenodd" clip-rule="evenodd" d="M16.795 10.2H18.3c.385 0 .7.315.7.7 0 .385-.315.7-.7.7H5.7a.702.702 0 0 1-.7-.7c0-.385.315-.7.7-.7h1.505l.998-3.01A1.75 1.75 0 0 1 9.864 6h4.27c.752 0 1.435.473 1.662 1.19l.998 3.01ZM8.867 7.418 7.94 10.2h8.12l-.91-2.782a1.035 1.035 0 0 0-.998-.718H9.866c-.455 0-.857.28-.998.718ZM6.05 16.85V12.3h11.9v4.55c0 .962-.787 1.75-1.75 1.75H7.8c-.962 0-1.75-.788-1.75-1.75Zm3.465.367c.157 0 .297-.14.297-.314v-2.888c0-.175-.122-.315-.297-.315a.314.314 0 0 0-.315.315v2.887c0 .175.14.316.315.316Zm2.485 0c.175 0 .315-.14.315-.314v-2.888A.314.314 0 0 0 12 13.7a.314.314 0 0 0-.315.315v2.887c0 .175.14.316.315.316Zm2.485 0c.175 0 .315-.14.315-.314v-2.888a.314.314 0 0 0-.315-.315c-.157 0-.297.14-.297.315v2.887c0 .175.122.316.297.316Z" fill="#606060"></path></mask><g mask="url(#basket_svg__a)"><path fill="#fff" d="M0 0h24v24H0z"></path></g></svg>