<svg width="102" height="30" fill="none" xmlns="http://www.w3.org/2000/svg"><rect width="101.25" height="30" rx="4" fill="#000"></rect><path fill-rule="evenodd" clip-rule="evenodd" d="M3.75 0H97.5a3.75 3.75 0 0 1 3.75 3.75v22.5A3.75 3.75 0 0 1 97.5 30H3.75A3.75 3.75 0 0 1 0 26.25V3.75A3.75 3.75 0 0 1 3.75 0Zm96.9 3.75A3.15 3.15 0 0 0 97.5.6H3.75A3.15 3.15 0 0 0 .6 3.75v22.5a3.15 3.15 0 0 0 3.15 3.15H97.5a3.15 3.15 0 0 0 3.15-3.15V3.75Z" fill="#fff"></path><path d="M35.565 7.68a2.04 2.04 0 0 1-.562 1.5 2.175 2.175 0 0 1-1.65.66 2.25 2.25 0 0 1-1.658-.675 2.392 2.392 0 0 1 0-3.345 2.37 2.37 0 0 1 2.58-.487c.27.111.512.283.705.502l-.397.398a1.5 1.5 0 0 0-1.23-.54 1.8 1.8 0 1 0 1.26 3.097 1.44 1.44 0 0 0 .375-.915h-1.635v-.54h2.182c.018.115.028.23.03.345ZM39 5.805h-2.025V7.23h1.845v.54h-1.845v1.425H39v.555h-2.61v-4.5H39v.555ZM41.46 9.75h-.578V5.805h-1.26V5.25h3.128v.555h-1.29V9.75ZM44.955 9.75v-4.5h.578v4.5h-.578ZM48.097 9.75h-.577V5.805h-1.26V5.25h3.09v.555h-1.253V9.75Z" fill="#fff"></path><path fill-rule="evenodd" clip-rule="evenodd" d="M53.557 9.85c.62 0 1.213-.247 1.65-.684a2.25 2.25 0 0 0 .66-1.665 2.302 2.302 0 0 0-.66-1.665 2.25 2.25 0 0 0-1.65-.683 2.198 2.198 0 0 0-1.65.683 2.43 2.43 0 0 0 0 3.33 2.333 2.333 0 0 0 1.65.683Zm0-.549c-.46 0-.9-.184-1.222-.51a1.905 1.905 0 0 1 0-2.58 1.717 1.717 0 0 1 2.445 0c.67.728.67 1.85 0 2.58a1.718 1.718 0 0 1-1.223.51Z" fill="#fff"></path><path d="M56.685 9.75v-4.5h.697l2.19 3.502V5.25h.578v4.5h-.6l-2.288-3.668V9.75h-.577Z" fill="#fff"></path><path fill-rule="evenodd" clip-rule="evenodd" d="M35.805 17.295v1.35h3.24a2.827 2.827 0 0 1-.75 1.703 3.315 3.315 0 0 1-2.505.99 3.6 3.6 0 1 1 0-7.2 3.48 3.48 0 0 1 2.46.967l.952-.952a4.725 4.725 0 0 0-3.397-1.365 4.958 4.958 0 1 0 0 9.907 4.552 4.552 0 0 0 3.457-1.387 4.5 4.5 0 0 0 1.17-3.173 4.702 4.702 0 0 0-.067-.84h-4.56Zm8.31-.982a3.195 3.195 0 1 0 3.202 3.187 3.142 3.142 0 0 0-3.203-3.187Zm3.802 3.202a3.195 3.195 0 0 1 3.188-3.202 3.143 3.143 0 0 1 3.202 3.187 3.195 3.195 0 0 1-6.39.015Zm1.306.824a1.935 1.935 0 0 0 1.881 1.096 1.845 1.845 0 0 0 1.8-1.935 1.935 1.935 0 1 0-3.68.84Zm-6.99 0a1.935 1.935 0 0 0 1.881 1.096 1.845 1.845 0 0 0 1.8-1.935 1.935 1.935 0 1 0-3.68.84Zm24.824-4.027a3 3 0 0 1 2.73 2.033l.157.33-4.267 1.762c.266.611.88.995 1.545.968a1.807 1.807 0 0 0 1.568-.878l1.087.75a3.172 3.172 0 0 1-5.82-1.777 3 3 0 0 1 3-3.188Zm-1.62 3.098a1.755 1.755 0 0 1 1.672-1.867 1.23 1.23 0 0 1 1.178.683l-2.85 1.184Zm-2.063 3.09h-1.402v-9.374h1.402V22.5Zm-3.697-5.475h-.053a2.205 2.205 0 0 0-1.68-.75 3.195 3.195 0 0 0 0 6.383 2.16 2.16 0 0 0 1.68-.75h.053v.457c0 1.223-.653 1.875-1.703 1.875a1.77 1.77 0 0 1-1.612-1.132l-1.215.502a3 3 0 0 0 2.827 1.89c1.643 0 3-.967 3-3.322V16.5h-1.297v.525Zm-3.427 2.48c0 1.021.794 1.867 1.814 1.93a1.785 1.785 0 0 0 1.71-1.934 1.792 1.792 0 0 0-1.71-1.928 1.935 1.935 0 0 0-1.814 1.931Zm20.107-6.38h-3.36v9.376h1.402v-3.555h1.958a2.917 2.917 0 1 0 0-5.82Zm-1.957 4.5h1.957l.03.015a1.605 1.605 0 1 0 0-3.21H74.4v3.195Zm10.612-1.342a2.618 2.618 0 0 0-2.498 1.432l1.238.518c.255-.46.758-.728 1.282-.683a1.35 1.35 0 0 1 1.5 1.208v.09a3.136 3.136 0 0 0-1.462-.36c-1.335 0-2.7.75-2.7 2.115a2.168 2.168 0 0 0 2.332 2.062c.717.04 1.4-.31 1.785-.915h.045v.75h1.35v-3.607c0-1.643-1.245-2.595-2.842-2.595l-.03-.015Zm-1.267 4.342c0 .563.637.795 1.095.795l.03.015a1.695 1.695 0 0 0 1.65-1.5 2.49 2.49 0 0 0-1.275-.315c-.706 0-1.5.255-1.5 1.005Zm9.06-4.125L91.2 20.565h-.045L89.49 16.5h-1.5l2.497 5.685-1.425 3.158h1.463l3.84-8.843h-1.56Zm-11.206 6h-1.395v-9.374H81.6V22.5Z" fill="#fff"></path><path d="M7.83 5.655a1.5 1.5 0 0 0-.353 1.05v16.59c-.026.383.101.76.352 1.05l.053.06 9.292-9.293v-.225L7.882 5.603l-.053.052Z" fill="url(#google-play_svg__a)"></path><path d="m20.25 18.21-3.075-3.098v-.225l3.075-3.097.067.045L24 13.92c1.05.592 1.05 1.568 0 2.167l-3.668 2.085-.082.038Z" fill="url(#google-play_svg__b)"></path><path d="M20.34 18.165 17.175 15 7.83 24.345c.437.39 1.09.411 1.553.053l10.957-6.233Z" fill="url(#google-play_svg__c)"></path><path d="M20.34 11.835 9.383 5.61a1.207 1.207 0 0 0-1.553.045L17.175 15l3.165-3.165Z" fill="url(#google-play_svg__d)"></path><path opacity="0.2" d="M20.25 18.098 9.383 24.285a1.245 1.245 0 0 1-1.5 0l-.053.053.053.06a1.245 1.245 0 0 0 1.5 0l10.957-6.233-.09-.067Z" fill="#000"></path><path opacity="0.12" d="M7.83 24.24a1.5 1.5 0 0 1-.33-1.057v.112c-.026.383.101.76.352 1.05l.053-.052-.075-.053ZM24 15.975l-3.75 2.123.067.067L24 16.08c.443-.187.748-.602.795-1.08-.095.433-.39.795-.795.975Z" fill="#000"></path><path opacity="0.25" d="M9.383 5.715 24 14.025c.405.18.7.542.795.975A1.313 1.313 0 0 0 24 13.92L9.383 5.61c-1.043-.6-1.905-.105-1.905 1.095v.112c.022-1.2.862-1.695 1.905-1.102Z" fill="#EEE"></path><defs><linearGradient id="google-play_svg__a" x1="13.103" y1="-5.664" x2="-1.778" y2="-1.703" gradientUnits="userSpaceOnUse"><stop stop-color="#00A0FF"></stop><stop offset="0.01" stop-color="#00A1FF"></stop><stop offset="0.26" stop-color="#00BEFF"></stop><stop offset="0.51" stop-color="#00D2FF"></stop><stop offset="0.76" stop-color="#00DFFF"></stop><stop offset="1" stop-color="#00E3FF"></stop></linearGradient><linearGradient id="google-play_svg__b" x1="25.372" y1="7.35" x2="7.23" y2="7.35" gradientUnits="userSpaceOnUse"><stop stop-color="#FFE000"></stop><stop offset="0.41" stop-color="#FFBD00"></stop><stop offset="0.78" stop-color="orange"></stop><stop offset="1" stop-color="#FF9C00"></stop></linearGradient><linearGradient id="google-play_svg__c" x1="7.566" y1="10.14" x2="-4.405" y2="30.239" gradientUnits="userSpaceOnUse"><stop stop-color="#FF3A44"></stop><stop offset="1" stop-color="#C31162"></stop></linearGradient><linearGradient id="google-play_svg__d" x1="0.536" y1="3.075" x2="5.878" y2="12.05" gradientUnits="userSpaceOnUse"><stop stop-color="#32A071"></stop><stop offset="0.07" stop-color="#2DA771"></stop><stop offset="0.48" stop-color="#15CF74"></stop><stop offset="0.8" stop-color="#06E775"></stop><stop offset="1" stop-color="#00F076"></stop></linearGradient></defs></svg>