<svg width="24" height="24" fill="none" xmlns="http://www.w3.org/2000/svg"><path d="M12.397 2C6.914 2 4 5.513 4 9.343c0 1.776.993 3.992 2.582 4.695.453.204.393-.045.783-1.537a.354.354 0 0 0-.085-.348c-2.272-2.627-.443-8.029 4.793-8.029 7.577 0 6.161 10.485 1.318 10.485-1.248 0-2.178-.98-1.884-2.192.356-1.444 1.055-2.997 1.055-4.038 0-2.623-3.909-2.234-3.909 1.242 0 1.074.38 1.8.38 1.8s-1.257 5.08-1.49 6.028c-.395 1.607.053 4.208.092 4.432.024.123.163.163.24.06.124-.162 1.644-2.33 2.07-3.897.155-.571.79-2.888.79-2.888.42.757 1.629 1.39 2.916 1.39 3.83 0 6.598-3.367 6.598-7.544C20.236 4.997 16.81 2 12.397 2Z" fill="#DDD"></path></svg>