<svg width="20" height="20" fill="none" xmlns="http://www.w3.org/2000/svg"><path d="M4.741 2.5h10.495c1.236 0 2.262 1.008 2.262 2.227v10.525c0 1.24-1.026 2.248-2.262 2.248H4.74A2.247 2.247 0 0 1 2.5 15.252V4.727A2.243 2.243 0 0 1 4.741 2.5" stroke="#fff"></path><path fill-rule="evenodd" clip-rule="evenodd" d="M8.184 14.3c.545 0 .943-.21 1.215-.672.272-.44.42-.986.42-1.658 0-.441-.064-.819-.168-1.176a2.097 2.097 0 0 0-.545-.86 1.403 1.403 0 0 0-.922-.315c-.377 0-.691.105-.963.336-.273.21-.482.504-.608.86-.125.357-.21.756-.21 1.155s.085.776.21 1.133c.126.357.335.65.608.882.272.21.586.315.963.315Zm2.284-5.626c.46.357.816.84 1.047 1.428a5.19 5.19 0 0 1 .356 1.868c0 .63-.126 1.259-.356 1.868a3.43 3.43 0 0 1-1.048 1.427c-.46.357-1.005.525-1.654.525-.587 0-1.047-.063-1.425-.23-.356-.169-.586-.337-.733-.505a2.572 2.572 0 0 1-.21-.336l-.02-.084v.189c-.063 1.155-1.864.945-1.864.945V4.561H6.53v4.66h.02c.23-.358.566-.63.964-.82a3.005 3.005 0 0 1 1.299-.272c.649 0 1.194.189 1.654.546Zm-.189-4.113H9.085v3.232c.427-.006.83.132 1.194.364V4.561Zm4.675 5.54c-.636-1.621-2.421-2.45-4.001-1.7-.071.034-.14.07-.207.11.236.212.45.457.635.73a1.9 1.9 0 0 1 .638-.102c1.518 0 1.968 1.606 1.968 2.833 0 1.24-.481 2.807-1.968 2.807a1.96 1.96 0 0 1-.689-.116 3.9 3.9 0 0 1-.729.78c.069.038.144.077.226.116.377.168.838.23 1.425.23.649 0 1.194-.167 1.654-.524.461-.378.817-.84 1.048-1.427a5.28 5.28 0 0 0 .356-1.868c0-.65-.126-1.26-.356-1.868Z" fill="#fff"></path></svg>